<svg xmlns="http://www.w3.org/2000/svg" xmlns:xlink="http://www.w3.org/1999/xlink" width="180" height="71" viewBox="0 0 180 71">
  <defs>
    <clipPath id="clip-path">
      <rect id="Rectangle_34" data-name="Rectangle 34" width="180" height="71" transform="translate(16442 4264)" fill="#fff"/>
    </clipPath>
    <radialGradient id="radial-gradient" cx="0.353" cy="0.836" r="0.899" gradientTransform="matrix(0.421, -0.907, 0.648, 0.301, -0.338, 0.905)" gradientUnits="objectBoundingBox">
      <stop offset="0" stop-color="#c76d31"/>
      <stop offset="1" stop-color="#ff7459"/>
    </radialGradient>
    <radialGradient id="radial-gradient-2" cx="0.368" cy="0.872" r="0.978" gradientTransform="matrix(0.377, -0.926, 0.664, 0.271, -0.35, 0.977)" gradientUnits="objectBoundingBox">
      <stop offset="0" stop-color="#ff7459"/>
      <stop offset="1" stop-color="#d13e2a"/>
    </radialGradient>
    <radialGradient id="radial-gradient-3" cx="0.732" cy="0.159" r="0.528" gradientTransform="matrix(-0.349, 0.937, -0.937, -0.349, 1.137, -0.472)" gradientUnits="objectBoundingBox">
      <stop offset="0" stop-color="#fef5b0"/>
      <stop offset="0.436" stop-color="#fcd72a"/>
      <stop offset="1" stop-color="#ef7f1b"/>
    </radialGradient>
    <radialGradient id="radial-gradient-4" cx="0.896" cy="0.086" r="0.947" gradientTransform="translate(1.514 -0.567) rotate(127.955)" gradientUnits="objectBoundingBox">
      <stop offset="0" stop-color="#ef7f1b"/>
      <stop offset="0.573" stop-color="#fac903"/>
      <stop offset="1" stop-color="#fff287"/>
    </radialGradient>
  </defs>
  <g id="infonic-logo_180_71_" data-name="infonic-logo(180*71)" transform="translate(-16442 -4264)" clip-path="url(#clip-path)">
    <g id="complete-infonic-logo" transform="translate(22077.422 -4265.75)">
      <g id="infonic-logo" transform="translate(-5635.422 8533.404)">
        <g id="infonic-logo_adobe_express" transform="translate(0 10.843)">
          <path id="Path_165" data-name="Path 165" d="M201.012,403.684h2.835v2.285h-180v-2.285Z" transform="translate(-23.847 -365.697)" fill="#324354"/>
          <path id="Path_166" data-name="Path 166" d="M905.364,126.853l4.214,7.884v-2.689q-.01-11.516-.019-23.032c0-.655.252-1,.919-1.05a14.67,14.67,0,0,1,2.283-.007c.706.053.949.382.949,1.09q0,14.888,0,29.776a1.815,1.815,0,0,1-2.065,2.064,1.8,1.8,0,0,0-.255,0c-2.225.325-3.56-.795-4.558-2.654-1.878-3.5-3.847-6.941-5.761-10.417q-3.45-6.264-6.868-12.546c-.4-.735-.754-1.5-1.195-2.374-.027.251-.053.376-.053.5q.02,13.265.055,26.531c0,.569-.249.881-.738.911a22.008,22.008,0,0,1-2.65-.005c-.572-.034-.709-.439-.708-.992q.022-14.379.011-28.758,0-.35,0-.7c0-2.019.412-2.434,2.466-2.433.7,0,1.4.014,2.1.063a2.618,2.618,0,0,1,2.162,1.365q1.542,2.654,3.029,5.339C900.9,118.746,903.12,122.781,905.364,126.853Z" transform="translate(-778.824 -107.57)" fill="#324354"/>
          <path id="Path_167" data-name="Path 167" d="M183.9,140.963c-.4,0-.74-.029-1.076.005a3.479,3.479,0,0,1-3.586-2q-1.806-3.2-3.586-6.406-4.68-8.48-9.34-16.97c-.45-.819-.844-1.669-1.338-2.651,0,.795,0,1.418,0,2.042q.006,12.5.025,25c0,.6-.273.906-.784.941a19.992,19.992,0,0,1-2.526,0c-.521-.031-.788-.329-.787-.93q.024-15.111.013-30.221a1.561,1.561,0,0,1,1.559-1.72,26.261,26.261,0,0,1,2.984.035,2.572,2.572,0,0,1,2.171,1.35c1.1,1.9,2.191,3.8,3.241,5.73q5.288,9.7,10.547,19.418a2.67,2.67,0,0,0,.2.254c0-.257,0-.4,0-.552q-.036-12.629-.081-25.258a.866.866,0,0,1,.857-.976,15.2,15.2,0,0,1,2.407-.015c.593.044.908.4.907,1.071q-.022,14.888-.012,29.776A1.81,1.81,0,0,1,183.9,140.963Z" transform="translate(-143.464 -107.645)" fill="#324354"/>
          <path id="Path_169" data-name="Path 169" d="M1251.543,134.541a11.99,11.99,0,0,0,10.444-1.969,6.709,6.709,0,0,1,.97-.6c.533-.252.916-.081.961.495a10.085,10.085,0,0,1-.028,2.463,2.176,2.176,0,0,1-.854,1.188,14.412,14.412,0,0,1-7.342,2.641,15.275,15.275,0,0,1-6.923-.826,12.163,12.163,0,0,1-7.3-7.6,23.307,23.307,0,0,1-1.217-9.741,19.79,19.79,0,0,1,2.077-8.02,12.852,12.852,0,0,1,10.612-7.294,14.384,14.384,0,0,1,9.616,2.2,3.623,3.623,0,0,1,1.1,4.24c-.248.489-.558.567-1.094.23-.821-.516-1.6-1.115-2.447-1.571a10.266,10.266,0,0,0-9.139-.663A9.117,9.117,0,0,0,1246,115.4a19.978,19.978,0,0,0-1.07,7.795,18.025,18.025,0,0,0,1.065,5.762A8.806,8.806,0,0,0,1251.543,134.541Z" transform="translate(-1085.395 -105.185)" fill="#324354"/>
          <path id="Path_170" data-name="Path 170" d="M428.5,134.216c0,1.972-.021,3.881.013,5.788.012.673-.29,1.025-.9,1.058a23.77,23.77,0,0,1-2.654-.011c-.584-.034-.856-.378-.855-1.018q.022-14.949.013-29.9c0-1.439.566-1.988,2.008-1.988q6.965,0,13.931,0c.893,0,1.133.177,1.254,1.062a6.09,6.09,0,0,1,.024,1.516c-.113.969-.348,1.144-1.317,1.143l-10.75,0h-.729v11.167h10.915c.861,0,1.106.178,1.2,1.032a7.193,7.193,0,0,1-.026,1.7c-.1.709-.395.918-1.122.918q-5.121,0-10.241,0H428.5C428.5,129.207,428.5,131.68,428.5,134.216Z" transform="translate(-373.173 -107.77)" fill="#324354"/>
          <path id="Path_171" data-name="Path 171" d="M1152.19,122.562c0-4.581,0-9.1,0-13.617,0-.876.1-1.053.987-1.132a21.389,21.389,0,0,1,2.52-.009c.658.019.888.4.886,1.048-.018,3.245-.009,6.49-.009,9.735v20.934c0,.971-.131,1.157-1.1,1.229a15.054,15.054,0,0,1-2.275-.009c-.846-.067-1.005-.289-1.005-1.127Z" transform="translate(-1008.598 -107.442)" fill="#324354"/>
          <path id="Path_172" data-name="Path 172" d="M62.231,118.459c0,7.123,0,14.183,0,21.243,0,.886-.148,1.086-1.038,1.142a15.788,15.788,0,0,1-2.337-.007c-.83-.072-.951-.265-.951-1.093q0-8.4,0-16.791c0-4.685.012-9.371-.014-14.056,0-.626.258-.949.807-.979a26.3,26.3,0,0,1,2.774,0c.53.027.777.344.772.938C62.217,112.035,62.231,115.215,62.231,118.459Z" transform="translate(-53.558 -107.538)" fill="#324354"/>
        </g>
        <g id="Group_153" data-name="Group 153" transform="translate(68.942 0)">
          <path id="Path_267" data-name="Path 267" d="M7087.906,11324.45a16.853,16.853,0,0,0,11.4,7.98,16.21,16.21,0,0,0,8.5-.566,16.763,16.763,0,0,0,10.561-11.931c.018-.051,1.135-6.059-1.431-10.785,0-.125-4.362,7-4.362,7s1.462,11.213-10.866,10.641C7101.683,11326.771,7087.906,11324.45,7087.906,11324.45Z" transform="translate(-7085.536 -11288.732)" fill="url(#radial-gradient)"/>
          <path id="Path_273" data-name="Path 273" d="M7094.3,11325.748a17,17,0,0,0,7.876,6.011,15.649,15.649,0,0,0,11.093.246,16.435,16.435,0,0,0,10.764-11.91s1.368-6.741-1.468-10.986l-2.078,3.366s3.163,9.006-3.474,14.51-14.451,1.6-15.437,1.552C7101.547,11328.518,7094.3,11325.748,7094.3,11325.748Z" transform="translate(-7091.139 -11288.82)" fill="url(#radial-gradient-2)"/>
          <path id="Subtraction_1" data-name="Subtraction 1" d="M9.647,39.813h0a9.342,9.342,0,0,1-2.83-.44,10.913,10.913,0,0,1-2.83-1.4,4.2,4.2,0,0,1-1.1-1.078,11.894,11.894,0,0,1-1.181-1.972A16.9,16.9,0,0,1,.687,32.24a17.733,17.733,0,0,1-.611-3.207A16.429,16.429,0,0,1,.093,25.7a15.074,15.074,0,0,1,2.584-6.958,17.886,17.886,0,0,1,2.975-3.319h0c.033-.029.335-.293.856-.669a19.54,19.54,0,0,1,2.275-1.408,18.744,18.744,0,0,1,3.506-1.428,15.9,15.9,0,0,1,4.437-.649,14.716,14.716,0,0,1,3.139.339A15.581,15.581,0,0,1,23.2,12.752c-.011-.068,1.439-3.269,1.454-3.3L18.67,8.415,35.768,0l3.784,18.922L34.3,14.2l0,0c-.081.172-.824,1.745-2.06,4-.764,1.394-1.565,2.774-2.381,4.1-1.02,1.659-2.066,3.241-3.109,4.7a46.339,46.339,0,0,1-7.878,8.8,24.149,24.149,0,0,1-2.221,1.638,17.608,17.608,0,0,1-2.289,1.263,13.009,13.009,0,0,1-2.341.813A10.276,10.276,0,0,1,9.647,39.813Zm7.811-20.558a8.745,8.745,0,0,0-2.339.324A9.1,9.1,0,0,0,9.177,24.4a8.63,8.63,0,0,0-.78,6.261c.152.564.463.874.876.874a1.165,1.165,0,0,0,.532-.148,11.96,11.96,0,0,0,2.01-1.6,46.907,46.907,0,0,0,3.3-3.432,47.044,47.044,0,0,0,3.142-4.028c.772-1.1,1.318-1.974,1.5-2.281a.825.825,0,0,0,.12-.449A8.97,8.97,0,0,0,17.458,19.254Z" transform="translate(0.314 0)" fill="url(#radial-gradient-3)"/>
          <path id="Path_276" data-name="Path 276" d="M7105.1,11148.177l3.785,18.922-5.249-4.721s-15.4,34.125-30.319,23.771c-1.993-1.17-6.705-8.629-2.791-16.615,0,.016-1.6,5.74,0,10.2a8.041,8.041,0,0,0,6.251,5.449c1.88.227,4.377-.409,7.476-2.811a37.5,37.5,0,0,0,7.259-8.2c3.823-5.252,3.918-6.034,7.338-12.467S7105.1,11148.177,7105.1,11148.177Z" transform="translate(-7069.023 -11148.177)" fill="url(#radial-gradient-4)"/>
        </g>
      </g>
      <g id="Group_162" data-name="Group 162" transform="translate(-5634.62 8589.042)">
        <path id="Path_300" data-name="Path 300" d="M6.84-59.484c0,.78.406,1.025,1.025,1.025h2.1c2.339,0,3.7-1.41,3.7-3.845,0-3.012-1.751-3.845-3.663-3.845H7.865c-.619,0-1.025.246-1.025,1.025Zm1.751-5.254h1.463c1.282,0,1.858.918,1.858,2.435,0,1.185-.449,2.435-1.848,2.435H8.592ZM15.074-59.2a.824.824,0,0,0,.876.876.824.824,0,0,0,.876-.876v-6.216a.824.824,0,0,0-.876-.876.824.824,0,0,0-.876.876ZM25.711-61.8c0-.481-.2-.737-.716-.737H22.838a.616.616,0,0,0-.684.673c0,.534.417.673.79.673h1.143a1.768,1.768,0,0,1-1.826,1.57c-1.431,0-2.179-1.047-2.179-2.563,0-1.944.951-2.734,2.157-2.734,1.709,0,1.388,1.207,2.253,1.207a.731.731,0,0,0,.822-.769c0-.684-1.036-1.848-2.98-1.848a3.714,3.714,0,0,0-4,4.026c0,2.157,1.036,4.026,3.749,4.026a2.709,2.709,0,0,0,2.285-1.036c.107.684.246.993.748.993a.582.582,0,0,0,.6-.587Zm1.7,2.606a.824.824,0,0,0,.876.876.824.824,0,0,0,.876-.876v-6.216a.824.824,0,0,0-.876-.876.824.824,0,0,0-.876.876Zm5.383,0a.824.824,0,0,0,.876.876.824.824,0,0,0,.876-.876v-5.479H36.2c.5,0,.908-.256.908-.737s-.406-.737-.908-.737H31.137c-.5,0-.908.256-.908.737s.406.737.908.737h1.655Zm4.251-.566a2.4,2.4,0,0,0-.171.673.746.746,0,0,0,.812.769.706.706,0,0,0,.78-.481l.459-1.282h2.819L42.19-58.8a.75.75,0,0,0,.79.481.8.8,0,0,0,.822-.769,2.4,2.4,0,0,0-.171-.673l-2.115-5.885a.865.865,0,0,0-.94-.641h-.417a.792.792,0,0,0-.854.534ZM41.357-61.3H39.307l1.036-3.086h.021Zm3.482,1.816c0,.78.406,1.025,1.025,1.025h3.653c.5,0,.908-.256.908-.737s-.406-.737-.908-.737H46.59v-5.479a.824.824,0,0,0-.876-.876.824.824,0,0,0-.876.876Zm81.274.288a.824.824,0,0,0,.876.876.824.824,0,0,0,.876-.876v-6.216a.824.824,0,0,0-.876-.876.824.824,0,0,0-.876.876Zm3.471.032a.76.76,0,0,0,.844.844.76.76,0,0,0,.844-.844V-63.6h.021l3.044,4.806c.224.352.406.47.961.47.737,0,1.036-.4,1.036-1.089v-6.034a.76.76,0,0,0-.844-.844.76.76,0,0,0-.844.844v4.56h-.021l-3.065-4.945a.966.966,0,0,0-.876-.459c-.748,0-1.1.3-1.1,1.025Zm11.032-4.08c-.555-.128-1.2-.3-1.2-.833s.449-.908,1.26-.908c1.634,0,1.484,1.143,2.3,1.143a.727.727,0,0,0,.8-.694c0-1.025-1.613-1.794-2.98-1.794-1.485,0-3.065.641-3.065,2.35,0,.822.288,1.7,1.88,2.1l1.976.5c.6.15.748.491.748.8,0,.513-.5,1.015-1.41,1.015-1.773,0-1.527-1.388-2.478-1.388a.7.7,0,0,0-.737.726c0,.833.993,1.944,3.215,1.944,2.115,0,3.161-1.036,3.161-2.424,0-.9-.406-1.848-2.008-2.211Zm6.76,4.048a.824.824,0,0,0,.876.876.824.824,0,0,0,.876-.876v-5.479h1.655c.5,0,.908-.256.908-.737s-.406-.737-.908-.737h-5.062c-.5,0-.908.256-.908.737s.406.737.908.737h1.655Zm5.383,0a.824.824,0,0,0,.876.876.824.824,0,0,0,.876-.876v-6.216a.824.824,0,0,0-.876-.876.824.824,0,0,0-.876.876Zm5.383,0a.824.824,0,0,0,.876.876.824.824,0,0,0,.876-.876v-5.479h1.655c.5,0,.908-.256.908-.737s-.406-.737-.908-.737h-5.062c-.5,0-.908.256-.908.737s.406.737.908.737h1.655Zm5.383-2.147c0,2.115,1.3,3.065,3.343,3.065s3.343-.951,3.343-3.065v-4.069a.824.824,0,0,0-.876-.876.824.824,0,0,0-.876.876V-61.2c0,1.047-.587,1.517-1.591,1.517s-1.591-.47-1.591-1.517v-4.208a.824.824,0,0,0-.876-.876.824.824,0,0,0-.876.876ZM173.841-59.2a.824.824,0,0,0,.876.876.824.824,0,0,0,.876-.876v-5.479h1.655c.5,0,.908-.256.908-.737s-.406-.737-.908-.737h-5.062c-.5,0-.908.256-.908.737s.406.737.908.737h1.655Zm5.425-.288c0,.78.406,1.025,1.025,1.025h4.2c.513,0,.886-.15.886-.7s-.374-.7-.886-.7h-3.471v-1.858h2.969c.459,0,.822-.128.822-.673s-.363-.673-.822-.673h-2.969v-1.666H184.4c.513,0,.886-.15.886-.7s-.374-.7-.886-.7h-4.112c-.619,0-1.025.246-1.025,1.025Z" transform="translate(-6.84 66.33)" fill="#324354"/>
        <path id="Path_301" data-name="Path 301" d="M411.48-59.174a.758.758,0,0,0,.78.854.758.758,0,0,0,.78-.854v-4.763h.021l1.634,5.1a.707.707,0,0,0,.748.513.707.707,0,0,0,.748-.513l1.634-5.1h.021v4.763a.758.758,0,0,0,.78.854.758.758,0,0,0,.78-.854v-6.248c0-.7-.481-.865-.951-.865h-.491c-.545,0-.8.214-.983.8l-1.506,4.934h-.021l-1.527-4.934c-.182-.587-.438-.8-.983-.8h-.513c-.47,0-.951.16-.951.865Zm9.1-.587a2.4,2.4,0,0,0-.171.673.746.746,0,0,0,.812.769A.706.706,0,0,0,422-58.8l.459-1.282h2.82l.449,1.282a.75.75,0,0,0,.79.481.8.8,0,0,0,.822-.769,2.4,2.4,0,0,0-.171-.673l-2.115-5.885a.865.865,0,0,0-.94-.641H423.7a.792.792,0,0,0-.854.534Zm4.315-1.538h-2.051l1.036-3.086h.021Zm3.482,2.1a.824.824,0,0,0,.876.876.824.824,0,0,0,.876-.876v-2.253h1.73c.961,0,1.207.545,1.207,1.89,0,.31.075,1.239,1.036,1.239a.773.773,0,0,0,.822-.684,10.426,10.426,0,0,1-.235-1.581c0-.78-.16-1.431-1.057-1.559v-.021a1.837,1.837,0,0,0,1.324-1.848c0-.993-.555-2.136-2.638-2.136H429.4c-.619,0-1.025.246-1.025,1.025Zm1.751-5.607h1.8c.769,0,1.271.214,1.271,1.036,0,.865-.662,1.036-1.324,1.036h-1.751Zm6.29,5.607a.824.824,0,0,0,.876.876.824.824,0,0,0,.876-.876v-1.741l.961-.961,2.019,3.119a.783.783,0,0,0,.78.459.8.8,0,0,0,.9-.844,1.471,1.471,0,0,0-.331-.694l-2.125-3.236,1.794-1.89a.825.825,0,0,0,.288-.6.764.764,0,0,0-.833-.7.924.924,0,0,0-.694.384l-2.755,3.033v-2.542a.824.824,0,0,0-.876-.876.824.824,0,0,0-.876.876Zm7.487-.288c0,.78.406,1.025,1.025,1.025h4.2c.513,0,.886-.15.886-.7s-.374-.7-.886-.7h-3.471v-1.858h2.969c.459,0,.822-.128.822-.673s-.363-.673-.822-.673h-2.969v-1.666h3.385c.513,0,.887-.15.887-.7s-.374-.7-.887-.7h-4.112c-.619,0-1.025.246-1.025,1.025Zm9.281.288a.824.824,0,0,0,.876.876.824.824,0,0,0,.876-.876v-5.479h1.655c.5,0,.908-.256.908-.737s-.406-.737-.908-.737h-5.062c-.5,0-.908.256-.908.737s.406.737.908.737h1.655Zm5.383,0a.824.824,0,0,0,.876.876.824.824,0,0,0,.876-.876v-6.216a.824.824,0,0,0-.876-.876.824.824,0,0,0-.876.876Zm3.471.032a.76.76,0,0,0,.844.844.76.76,0,0,0,.844-.844V-63.6h.021l3.044,4.806c.224.352.406.47.961.47.737,0,1.036-.4,1.036-1.089v-6.034a.76.76,0,0,0-.844-.844.76.76,0,0,0-.844.844v4.56h-.021l-3.065-4.945a.966.966,0,0,0-.876-.459c-.748,0-1.1.3-1.1,1.025Zm15.6-2.638c0-.481-.2-.737-.716-.737h-2.157a.616.616,0,0,0-.684.673c0,.534.417.673.79.673h1.143a1.768,1.768,0,0,1-1.826,1.57c-1.431,0-2.179-1.047-2.179-2.563,0-1.944.951-2.734,2.157-2.734,1.709,0,1.388,1.207,2.253,1.207a.731.731,0,0,0,.822-.769c0-.684-1.036-1.848-2.98-1.848a3.714,3.714,0,0,0-4,4.026c0,2.157,1.036,4.026,3.749,4.026a2.709,2.709,0,0,0,2.285-1.036c.107.684.246.993.748.993a.582.582,0,0,0,.6-.587Z" transform="translate(-363.463 66.33)" fill="#ff7459"/>
      </g>
    </g>
  </g>
</svg>
